<?xml version="1.0" encoding="UTF-8" standalone="no"?>
<!-- Created with Inkscape (http://www.inkscape.org/) -->

<svg
   width="23.837894mm"
   height="29.906109mm"
   viewBox="0 0 23.837894 29.906109"
   version="1.1"
   id="svg1"
   xmlns="http://www.w3.org/2000/svg"
   xmlns:svg="http://www.w3.org/2000/svg">
  <defs
     id="defs1" />
  <g
     id="layer1"
     transform="translate(-124.20031,-34.264163)">
    <g
       id="g301"
       style="display:inline"
       transform="matrix(0.26458333,0,0,0.26458333,100.89208,-42.345692)">
					
						<circle
   transform="matrix(0.3827,-0.9239,0.9239,0.3827,-226.8371,329.3727)"
   style="display:none;fill:#fe35fe"
   cx="133.052"
   cy="334.42899"
   id="ellipse296"
   r="48.383999" />

					<g
   id="g300">
						<g
   id="g297">
							<path
   style="display:none;fill:#161419"
   d="m 133.052,379.08 c -24.603,0 -44.618,-20.03 -44.618,-44.65 0,-24.621 20.015,-44.651 44.618,-44.651 24.602,0 44.617,20.03 44.617,44.651 0,16.91106 -9.44324,31.65652 -23.32987,39.23263 -6.33024,3.45358 -13.58383,5.41737 -21.28713,5.41737 z m 0,-88.394 c -24.102,0 -43.709,19.623 -43.709,43.743 0,24.119 19.608,43.742 43.709,43.742 7.54744,0 14.65427,-1.9244 20.85627,-5.30863 13.60264,-7.42252 22.85273,-21.86745 22.85273,-38.43337 0,-24.119 -19.608,-43.743 -43.709,-43.743 z"
   id="path296" />

						</g>

						<g
   id="g298">
							<path
   style="fill:#161419"
   d="m 133.052,367.832 c -18.405,0 -33.378,-14.984 -33.378,-33.402 h 0.908 c 0,17.917 14.566,32.494 32.47,32.494 17.904,0 32.47,-14.577 32.47,-32.494 h 0.908 c 0,18.418 -14.973,33.402 -33.378,33.402 z"
   id="path297" />

						</g>

						<g
   id="g299">
							<ellipse
   style="fill:#161419"
   cx="120.812"
   cy="323.271"
   rx="4.8270001"
   ry="12.751"
   id="ellipse298" />

							<path
   style="fill:#161419"
   d="m 150.119,323.271 c 0,7.042 -2.161,12.751 -4.827,12.751 -2.666,0 -4.827,-5.709 -4.827,-12.751 0,-7.042 2.161,-12.751 4.827,-12.751 2.666,0.001 4.827,5.709 4.827,12.751 z"
   id="path298" />

						</g>

					</g>

				</g>
    <path
       style="fill:none;stroke:#000000;stroke-width:0.25;stroke-linecap:round;stroke-linejoin:round;stroke-dasharray:none"
       d="m 124.34816,46.097364 c 0,-2.864991 0.94099,-11.708201 11.44344,-11.708201 10.59295,0 12.17894,8.320565 12.12005,11.325772 -0.0175,0.893467 -0.22436,5.333649 -2.24992,8.186195 -1.30937,1.843954 0.17064,6.840723 -1.15749,9.054558 -0.40667,0.677859 -0.53345,-2.501532 -1.05275,-1.998309 -0.42728,0.414049 -0.89497,0.758208 -1.40684,1.014742 -1.45424,0.728816 -3.12029,-3.64793 -5.37052,-4.10772 -0.94146,-0.192369 -1.82821,0.285102 -2.97809,0.437959 -1.25399,0.166695 -1.74864,5.652591 -2.56976,5.741695 -0.95391,0.103512 -1.22641,-5.803604 -2.26988,-6.500954 -5.12092,-3.422318 -4.50824,-9.432366 -4.50824,-11.445737 z"
       id="path2" />
  </g>
</svg>
