<?xml version="1.0" encoding="UTF-8" standalone="no"?>
<svg
   id="uuid-def735c0-5188-434e-8c07-01f27cb97053"
   data-name="Layer 1"
   viewBox="0 0 4000 4000"
   version="1.1"
   sodipodi:docname="wrld.svg"
   inkscape:version="1.4 (e7c3feb100, 2024-10-09)"
   xmlns:inkscape="http://www.inkscape.org/namespaces/inkscape"
   xmlns:sodipodi="http://sodipodi.sourceforge.net/DTD/sodipodi-0.dtd"
   xmlns="http://www.w3.org/2000/svg"
   xmlns:svg="http://www.w3.org/2000/svg">
  <sodipodi:namedview
     id="namedview45"
     pagecolor="#ffffff"
     bordercolor="#000000"
     borderopacity="0.25"
     inkscape:showpageshadow="2"
     inkscape:pageopacity="0.0"
     inkscape:pagecheckerboard="0"
     inkscape:deskcolor="#d1d1d1"
     inkscape:zoom="0.3155"
     inkscape:cx="1998.4152"
     inkscape:cy="2000"
     inkscape:window-width="2560"
     inkscape:window-height="1440"
     inkscape:window-x="0"
     inkscape:window-y="0"
     inkscape:window-maximized="1"
     inkscape:current-layer="uuid-def735c0-5188-434e-8c07-01f27cb97053" />
  <defs
     id="defs1">
    <style
       id="style1">
      .uuid-8755e9e9-e924-4245-b126-43e7e7122e77 {
        fill: #191b53;
      }

      .uuid-8755e9e9-e924-4245-b126-43e7e7122e77, .uuid-2ed18e57-faa3-4116-88c9-a94f067ca875 {
        stroke-width: 0px;
      }

      .uuid-2ed18e57-faa3-4116-88c9-a94f067ca875 {
        fill: #fff;
      }
    </style>
  </defs>
  <g
     id="g45"
     style="fill:#000000">
    <polygon
       class="uuid-8755e9e9-e924-4245-b126-43e7e7122e77"
       points="2965.84 1749.61 2965.84 1821.03 2965.84 1892.59 2965.84 1964.15 2965.84 2035.71 2965.84 2107.27 2965.84 2178.83 2965.84 2250.24 3037.26 2250.24 3037.26 2178.83 3037.26 2107.27 3037.26 2035.71 3037.26 1964.15 3037.26 1892.59 3037.26 1821.03 3037.26 1749.61 2965.84 1749.61"
       id="polygon1"
       style="fill:#000000" />
    <polygon
       class="uuid-8755e9e9-e924-4245-b126-43e7e7122e77"
       points="2894.28 2321.8 2894.28 2393.36 2822.72 2393.36 2751.16 2393.36 2751.16 2464.92 2822.72 2464.92 2822.72 2536.48 2822.72 2608.04 2894.28 2608.04 2894.28 2536.48 2894.28 2464.92 2965.84 2464.92 2965.84 2393.36 2965.84 2321.8 2965.84 2250.24 2894.28 2250.24 2894.28 2321.8"
       id="polygon2"
       style="fill:#000000" />
    <polygon
       class="uuid-8755e9e9-e924-4245-b126-43e7e7122e77"
       points="2894.28 1678.05 2822.72 1678.05 2751.16 1678.05 2679.6 1678.05 2608.04 1678.05 2608.04 1606.49 2608.04 1534.93 2608.04 1463.37 2608.04 1391.81 2536.63 1391.81 2536.63 1463.37 2536.63 1534.93 2536.63 1606.49 2465.07 1606.49 2393.51 1606.49 2321.95 1606.49 2250.39 1606.49 2250.39 1678.05 2321.95 1678.05 2393.51 1678.05 2465.07 1678.05 2536.63 1678.05 2536.63 1749.61 2536.63 1821.03 2536.63 1892.59 2536.63 1964.15 2536.63 2035.71 2608.04 2035.71 2608.04 1964.15 2608.04 1892.59 2608.04 1821.03 2608.04 1749.61 2679.6 1749.61 2751.16 1749.61 2822.72 1749.61 2894.28 1749.61 2965.84 1749.61 2965.84 1678.05 2965.84 1606.49 2965.84 1534.93 2894.28 1534.93 2894.28 1606.49 2894.28 1678.05"
       id="polygon3"
       style="fill:#000000" />
    <polygon
       class="uuid-8755e9e9-e924-4245-b126-43e7e7122e77"
       points="2822.72 1534.93 2894.28 1534.93 2894.28 1463.37 2894.28 1391.81 2822.72 1391.81 2822.72 1463.37 2822.72 1534.93"
       id="polygon4"
       style="fill:#000000" />
    <rect
       class="uuid-8755e9e9-e924-4245-b126-43e7e7122e77"
       x="2751.16"
       y="2608.04"
       width="71.56"
       height="71.41"
       id="rect4"
       style="fill:#000000" />
    <rect
       class="uuid-8755e9e9-e924-4245-b126-43e7e7122e77"
       x="2751.16"
       y="1320.4"
       width="71.56"
       height="71.41"
       id="rect5"
       style="fill:#000000" />
    <rect
       class="uuid-8755e9e9-e924-4245-b126-43e7e7122e77"
       x="2679.6"
       y="2679.46"
       width="71.56"
       height="71.56"
       id="rect6"
       style="fill:#000000" />
    <rect
       class="uuid-8755e9e9-e924-4245-b126-43e7e7122e77"
       x="2679.6"
       y="1248.84"
       width="71.56"
       height="71.56"
       id="rect7"
       style="fill:#000000" />
    <rect
       class="uuid-8755e9e9-e924-4245-b126-43e7e7122e77"
       x="2608.04"
       y="2751.02"
       width="71.56"
       height="71.56"
       id="rect8"
       style="fill:#000000" />
    <polygon
       class="uuid-8755e9e9-e924-4245-b126-43e7e7122e77"
       points="2679.6 2393.36 2751.16 2393.36 2751.16 2321.8 2679.6 2321.8 2608.04 2321.8 2608.04 2393.36 2679.6 2393.36"
       id="polygon8"
       style="fill:#000000" />
    <rect
       class="uuid-8755e9e9-e924-4245-b126-43e7e7122e77"
       x="2608.04"
       y="1177.28"
       width="71.56"
       height="71.56"
       id="rect9"
       style="fill:#000000" />
    <polygon
       class="uuid-8755e9e9-e924-4245-b126-43e7e7122e77"
       points="2465.07 2822.58 2465.07 2894.14 2536.63 2894.14 2608.04 2894.14 2608.04 2822.58 2536.63 2822.58 2465.07 2822.58"
       id="polygon9"
       style="fill:#000000" />
    <polygon
       class="uuid-8755e9e9-e924-4245-b126-43e7e7122e77"
       points="2465.07 2107.27 2465.07 2178.83 2393.51 2178.83 2321.95 2178.83 2321.95 2250.24 2393.51 2250.24 2393.51 2321.8 2393.51 2393.36 2465.07 2393.36 2465.07 2321.8 2536.63 2321.8 2608.04 2321.8 2608.04 2250.24 2536.63 2250.24 2536.63 2178.83 2536.63 2107.27 2536.63 2035.71 2465.07 2035.71 2465.07 2107.27"
       id="polygon10"
       style="fill:#000000" />
    <polygon
       class="uuid-8755e9e9-e924-4245-b126-43e7e7122e77"
       points="2393.51 2822.58 2321.95 2822.58 2321.95 2894.14 2250.39 2894.14 2250.39 2965.7 2321.95 2965.7 2393.51 2965.7 2465.07 2965.7 2465.07 2894.14 2393.51 2894.14 2393.51 2822.58"
       id="polygon11"
       style="fill:#000000" />
    <rect
       class="uuid-8755e9e9-e924-4245-b126-43e7e7122e77"
       x="2321.95"
       y="2393.36"
       width="71.56"
       height="71.56"
       id="rect11"
       style="fill:#000000" />
    <polygon
       class="uuid-8755e9e9-e924-4245-b126-43e7e7122e77"
       points="2321.95 1248.84 2321.95 1320.4 2393.51 1320.4 2393.51 1248.84 2393.51 1177.28 2321.95 1177.28 2321.95 1248.84"
       id="polygon12"
       style="fill:#000000" />
    <rect
       class="uuid-8755e9e9-e924-4245-b126-43e7e7122e77"
       x="2250.39"
       y="2751.02"
       width="71.56"
       height="71.56"
       id="rect12"
       style="fill:#000000" />
    <rect
       class="uuid-8755e9e9-e924-4245-b126-43e7e7122e77"
       x="2250.39"
       y="2464.92"
       width="71.56"
       height="71.56"
       id="rect13"
       style="fill:#000000" />
    <polygon
       class="uuid-8755e9e9-e924-4245-b126-43e7e7122e77"
       points="2321.95 1391.81 2321.95 1320.4 2250.39 1320.4 2250.39 1391.81 2250.39 1463.37 2321.95 1463.37 2321.95 1391.81"
       id="polygon13"
       style="fill:#000000" />
    <polygon
       class="uuid-8755e9e9-e924-4245-b126-43e7e7122e77"
       points="2321.95 1105.72 2393.51 1105.72 2393.51 1177.28 2465.07 1177.28 2465.07 1248.84 2465.07 1320.4 2465.07 1391.81 2536.63 1391.81 2536.63 1320.4 2536.63 1248.84 2536.63 1177.28 2608.04 1177.28 2608.04 1105.72 2536.63 1105.72 2465.07 1105.72 2465.07 1034.16 2393.51 1034.16 2321.95 1034.16 2250.39 1034.16 2250.39 1105.72 2321.95 1105.72"
       id="polygon14"
       style="fill:#000000" />
    <rect
       class="uuid-8755e9e9-e924-4245-b126-43e7e7122e77"
       x="2178.83"
       y="2679.46"
       width="71.56"
       height="71.56"
       id="rect14"
       style="fill:#000000" />
    <rect
       class="uuid-8755e9e9-e924-4245-b126-43e7e7122e77"
       x="2178.83"
       y="2536.48"
       width="71.56"
       height="71.56"
       id="rect15"
       style="fill:#000000" />
    <polygon
       class="uuid-8755e9e9-e924-4245-b126-43e7e7122e77"
       points="2250.39 2178.83 2321.95 2178.83 2321.95 2107.27 2250.39 2107.27 2178.83 2107.27 2178.83 2178.83 2250.39 2178.83"
       id="polygon15"
       style="fill:#000000" />
    <polygon
       class="uuid-8755e9e9-e924-4245-b126-43e7e7122e77"
       points="2250.39 1463.37 2178.83 1463.37 2178.83 1534.93 2107.41 1534.93 2107.41 1606.49 2107.41 1678.05 2107.41 1749.61 2178.83 1749.61 2178.83 1678.05 2178.83 1606.49 2250.39 1606.49 2250.39 1534.93 2250.39 1463.37"
       id="polygon16"
       style="fill:#000000" />
    <polygon
       class="uuid-8755e9e9-e924-4245-b126-43e7e7122e77"
       points="2250.39 1177.28 2250.39 1105.72 2178.83 1105.72 2107.41 1105.72 2107.41 1177.28 2178.83 1177.28 2250.39 1177.28"
       id="polygon17"
       style="fill:#000000" />
    <polygon
       class="uuid-8755e9e9-e924-4245-b126-43e7e7122e77"
       points="2107.41 2965.7 2035.85 2965.7 1964.29 2965.7 1892.73 2965.7 1821.17 2965.7 1749.61 2965.7 1749.61 3037.26 1821.17 3037.26 1892.73 3037.26 1964.29 3037.26 2035.85 3037.26 2107.41 3037.26 2178.83 3037.26 2250.39 3037.26 2250.39 2965.7 2178.83 2965.7 2107.41 2965.7"
       id="polygon18"
       style="fill:#000000" />
    <polygon
       class="uuid-8755e9e9-e924-4245-b126-43e7e7122e77"
       points="2035.85 2608.04 2035.85 2679.46 1964.29 2679.46 1964.29 2751.02 2035.85 2751.02 2107.41 2751.02 2107.41 2679.46 2178.83 2679.46 2178.83 2608.04 2107.41 2608.04 2035.85 2608.04"
       id="polygon19"
       style="fill:#000000" />
    <polygon
       class="uuid-8755e9e9-e924-4245-b126-43e7e7122e77"
       points="2107.41 2107.27 2178.83 2107.27 2178.83 2035.71 2107.41 2035.71 2035.85 2035.71 2035.85 2107.27 2107.41 2107.27"
       id="polygon20"
       style="fill:#000000" />
    <polygon
       class="uuid-8755e9e9-e924-4245-b126-43e7e7122e77"
       points="2035.85 1821.03 2035.85 1892.59 2107.41 1892.59 2107.41 1821.03 2107.41 1749.61 2035.85 1749.61 2035.85 1821.03"
       id="polygon21"
       style="fill:#000000" />
    <polygon
       class="uuid-8755e9e9-e924-4245-b126-43e7e7122e77"
       points="2035.85 1463.37 1964.29 1463.37 1964.29 1534.93 2035.85 1534.93 2107.41 1534.93 2107.41 1463.37 2035.85 1463.37"
       id="polygon22"
       style="fill:#000000" />
    <polygon
       class="uuid-8755e9e9-e924-4245-b126-43e7e7122e77"
       points="2107.41 1248.84 2107.41 1177.28 2035.85 1177.28 1964.29 1177.28 1964.29 1248.84 2035.85 1248.84 2107.41 1248.84"
       id="polygon23"
       style="fill:#000000" />
    <rect
       class="uuid-8755e9e9-e924-4245-b126-43e7e7122e77"
       x="1964.29"
       y="2536.48"
       width="71.56"
       height="71.56"
       id="rect23"
       style="fill:#000000" />
    <polygon
       class="uuid-8755e9e9-e924-4245-b126-43e7e7122e77"
       points="1964.29 1964.15 1892.73 1964.15 1892.73 2035.71 1892.73 2107.27 1892.73 2178.83 1964.29 2178.83 1964.29 2107.27 1964.29 2035.71 2035.85 2035.71 2035.85 1964.15 2035.85 1892.59 1964.29 1892.59 1964.29 1964.15"
       id="polygon24"
       style="fill:#000000" />
    <rect
       class="uuid-8755e9e9-e924-4245-b126-43e7e7122e77"
       x="1892.73"
       y="1391.81"
       width="71.56"
       height="71.56"
       id="rect24"
       style="fill:#000000" />
    <polygon
       class="uuid-8755e9e9-e924-4245-b126-43e7e7122e77"
       points="1821.17 2751.02 1821.17 2822.58 1892.73 2822.58 1964.29 2822.58 1964.29 2751.02 1892.73 2751.02 1821.17 2751.02"
       id="polygon25"
       style="fill:#000000" />
    <polygon
       class="uuid-8755e9e9-e924-4245-b126-43e7e7122e77"
       points="1892.73 2536.48 1964.29 2536.48 1964.29 2464.92 1892.73 2464.92 1821.17 2464.92 1821.17 2536.48 1892.73 2536.48"
       id="polygon26"
       style="fill:#000000" />
    <polygon
       class="uuid-8755e9e9-e924-4245-b126-43e7e7122e77"
       points="1821.17 2250.24 1821.17 2321.8 1892.73 2321.8 1892.73 2250.24 1892.73 2178.83 1821.17 2178.83 1821.17 2250.24"
       id="polygon27"
       style="fill:#000000" />
    <polygon
       class="uuid-8755e9e9-e924-4245-b126-43e7e7122e77"
       points="1821.17 1892.59 1749.61 1892.59 1749.61 1964.15 1821.17 1964.15 1892.73 1964.15 1892.73 1892.59 1821.17 1892.59"
       id="polygon28"
       style="fill:#000000" />
    <polygon
       class="uuid-8755e9e9-e924-4245-b126-43e7e7122e77"
       points="1892.73 1391.81 1892.73 1320.4 1964.29 1320.4 1964.29 1248.84 1892.73 1248.84 1821.17 1248.84 1749.61 1248.84 1749.61 1320.4 1749.61 1391.81 1821.17 1391.81 1892.73 1391.81"
       id="polygon29"
       style="fill:#000000" />
    <polygon
       class="uuid-8755e9e9-e924-4245-b126-43e7e7122e77"
       points="1892.73 1034.16 1964.29 1034.16 2035.85 1034.16 2107.41 1034.16 2178.83 1034.16 2250.39 1034.16 2250.39 962.74 2178.83 962.74 2107.41 962.74 2035.85 962.74 1964.29 962.74 1892.73 962.74 1821.17 962.74 1749.61 962.74 1749.61 1034.16 1821.17 1034.16 1892.73 1034.16"
       id="polygon30"
       style="fill:#000000" />
    <polygon
       class="uuid-8755e9e9-e924-4245-b126-43e7e7122e77"
       points="1821.17 2894.14 1821.17 2822.58 1749.61 2822.58 1678.2 2822.58 1678.2 2894.14 1606.64 2894.14 1606.64 2822.58 1606.64 2751.02 1535.08 2751.02 1535.08 2822.58 1463.52 2822.58 1463.52 2751.02 1463.52 2679.46 1463.52 2608.04 1463.52 2536.48 1391.96 2536.48 1391.96 2608.04 1391.96 2679.46 1391.96 2751.02 1320.54 2751.02 1320.54 2822.58 1391.96 2822.58 1391.96 2894.14 1463.52 2894.14 1535.08 2894.14 1535.08 2965.7 1606.64 2965.7 1678.2 2965.7 1749.61 2965.7 1749.61 2894.14 1821.17 2894.14"
       id="polygon31"
       style="fill:#000000" />
    <polygon
       class="uuid-8755e9e9-e924-4245-b126-43e7e7122e77"
       points="1749.61 2393.36 1678.2 2393.36 1678.2 2464.92 1678.2 2536.48 1678.2 2608.04 1749.61 2608.04 1749.61 2536.48 1749.61 2464.92 1821.17 2464.92 1821.17 2393.36 1821.17 2321.8 1749.61 2321.8 1749.61 2393.36"
       id="polygon32"
       style="fill:#000000" />
    <polygon
       class="uuid-8755e9e9-e924-4245-b126-43e7e7122e77"
       points="1678.2 1821.03 1606.64 1821.03 1606.64 1892.59 1678.2 1892.59 1749.61 1892.59 1749.61 1821.03 1678.2 1821.03"
       id="polygon33"
       style="fill:#000000" />
    <rect
       class="uuid-8755e9e9-e924-4245-b126-43e7e7122e77"
       x="1678.2"
       y="1391.81"
       width="71.41"
       height="71.56"
       id="rect33"
       style="fill:#000000" />
    <rect
       class="uuid-8755e9e9-e924-4245-b126-43e7e7122e77"
       x="1678.2"
       y="1177.28"
       width="71.41"
       height="71.56"
       id="rect34"
       style="fill:#000000" />
    <polygon
       class="uuid-8755e9e9-e924-4245-b126-43e7e7122e77"
       points="1678.2 2679.46 1678.2 2608.04 1606.64 2608.04 1606.64 2679.46 1606.64 2751.02 1678.2 2751.02 1678.2 2679.46"
       id="polygon34"
       style="fill:#000000" />
    <rect
       class="uuid-8755e9e9-e924-4245-b126-43e7e7122e77"
       x="1606.64"
       y="1463.37"
       width="71.56"
       height="71.56"
       id="rect35"
       style="fill:#000000" />
    <polygon
       class="uuid-8755e9e9-e924-4245-b126-43e7e7122e77"
       points="1606.64 1177.28 1678.2 1177.28 1678.2 1105.72 1749.61 1105.72 1749.61 1034.16 1678.2 1034.16 1606.64 1034.16 1535.08 1034.16 1535.08 1105.72 1606.64 1105.72 1606.64 1177.28"
       id="polygon35"
       style="fill:#000000" />
    <rect
       class="uuid-8755e9e9-e924-4245-b126-43e7e7122e77"
       x="1535.08"
       y="1534.93"
       width="71.56"
       height="71.56"
       id="rect36"
       style="fill:#000000" />
    <polygon
       class="uuid-8755e9e9-e924-4245-b126-43e7e7122e77"
       points="1535.08 2393.36 1606.64 2393.36 1678.2 2393.36 1678.2 2321.8 1606.64 2321.8 1535.08 2321.8 1463.52 2321.8 1463.52 2393.36 1535.08 2393.36"
       id="polygon36"
       style="fill:#000000" />
    <polygon
       class="uuid-8755e9e9-e924-4245-b126-43e7e7122e77"
       points="1535.08 1177.28 1535.08 1105.72 1463.52 1105.72 1391.96 1105.72 1391.96 1177.28 1463.52 1177.28 1535.08 1177.28"
       id="polygon37"
       style="fill:#000000" />
    <polygon
       class="uuid-8755e9e9-e924-4245-b126-43e7e7122e77"
       points="1463.52 1892.59 1463.52 1821.03 1535.08 1821.03 1606.64 1821.03 1606.64 1749.61 1535.08 1749.61 1535.08 1678.05 1535.08 1606.49 1463.52 1606.49 1463.52 1678.05 1391.96 1678.05 1320.54 1678.05 1320.54 1749.61 1391.96 1749.61 1391.96 1821.03 1391.96 1892.59 1391.96 1964.15 1463.52 1964.15 1463.52 1892.59"
       id="polygon38"
       style="fill:#000000" />
    <rect
       class="uuid-8755e9e9-e924-4245-b126-43e7e7122e77"
       x="1320.54"
       y="1177.28"
       width="71.41"
       height="71.56"
       id="rect38"
       style="fill:#000000" />
    <rect
       class="uuid-8755e9e9-e924-4245-b126-43e7e7122e77"
       x="1248.98"
       y="2679.46"
       width="71.56"
       height="71.56"
       id="rect39"
       style="fill:#000000" />
    <polygon
       class="uuid-8755e9e9-e924-4245-b126-43e7e7122e77"
       points="1248.98 1606.49 1177.42 1606.49 1177.42 1678.05 1248.98 1678.05 1320.54 1678.05 1320.54 1606.49 1248.98 1606.49"
       id="polygon39"
       style="fill:#000000" />
    <rect
       class="uuid-8755e9e9-e924-4245-b126-43e7e7122e77"
       x="1248.98"
       y="1248.84"
       width="71.56"
       height="71.56"
       id="rect40"
       style="fill:#000000" />
    <rect
       class="uuid-8755e9e9-e924-4245-b126-43e7e7122e77"
       x="1177.42"
       y="2608.04"
       width="71.56"
       height="71.41"
       id="rect41"
       style="fill:#000000" />
    <rect
       class="uuid-8755e9e9-e924-4245-b126-43e7e7122e77"
       x="1177.42"
       y="1320.4"
       width="71.56"
       height="71.41"
       id="rect42"
       style="fill:#000000" />
    <polygon
       class="uuid-8755e9e9-e924-4245-b126-43e7e7122e77"
       points="1177.42 2464.92 1105.86 2464.92 1105.86 2536.48 1105.86 2608.04 1177.42 2608.04 1177.42 2536.48 1177.42 2464.92"
       id="polygon42"
       style="fill:#000000" />
    <polygon
       class="uuid-8755e9e9-e924-4245-b126-43e7e7122e77"
       points="1105.86 2321.8 1177.42 2321.8 1248.98 2321.8 1320.54 2321.8 1320.54 2393.36 1320.54 2464.92 1320.54 2536.48 1391.96 2536.48 1391.96 2464.92 1391.96 2393.36 1391.96 2321.8 1463.52 2321.8 1463.52 2250.24 1391.96 2250.24 1391.96 2178.83 1391.96 2107.27 1391.96 2035.71 1391.96 1964.15 1320.54 1964.15 1320.54 2035.71 1320.54 2107.27 1320.54 2178.83 1320.54 2250.24 1248.98 2250.24 1177.42 2250.24 1105.86 2250.24 1034.3 2250.24 1034.3 2321.8 1034.3 2393.36 1034.3 2464.92 1105.86 2464.92 1105.86 2393.36 1105.86 2321.8"
       id="polygon43"
       style="fill:#000000" />
    <polygon
       class="uuid-8755e9e9-e924-4245-b126-43e7e7122e77"
       points="1105.86 1678.05 1105.86 1606.49 1177.42 1606.49 1177.42 1534.93 1177.42 1463.37 1177.42 1391.81 1105.86 1391.81 1105.86 1463.37 1105.86 1534.93 1034.3 1534.93 1034.3 1606.49 1034.3 1678.05 1034.3 1749.61 1105.86 1749.61 1105.86 1678.05"
       id="polygon44"
       style="fill:#000000" />
    <polygon
       class="uuid-8755e9e9-e924-4245-b126-43e7e7122e77"
       points="1034.3 2107.27 1034.3 2035.71 1034.3 1964.15 1034.3 1892.59 1034.3 1821.03 1034.3 1749.61 962.74 1749.61 962.74 1821.03 962.74 1892.59 962.74 1964.15 962.74 2035.71 962.74 2107.27 962.74 2178.83 962.74 2250.24 1034.3 2250.24 1034.3 2178.83 1034.3 2107.27"
       id="polygon45"
       style="fill:#000000" />
  </g>
</svg>
